<svg xmlns="http://www.w3.org/2000/svg" width="116" height="116" viewBox="0 0 116 116" fill="none">
<path d="M106.399 68.0099H101.571C101.571 49.3049 86.4576 34.1765 67.7711 34.1765H62.9425V28.0383C64.4109 27.1897 65.6304 25.9688 66.478 24.499C67.3256 23.0289 67.7716 21.3615 67.7711 19.6642C67.7706 17.9668 67.3238 16.2997 66.4755 14.8301C65.6271 13.3606 64.4071 12.1405 62.9384 11.2926C61.4694 10.4447 59.8035 9.99892 58.1078 10C56.4122 10.0011 54.7468 10.449 53.279 11.2988C51.8112 12.1486 50.5929 13.3702 49.7463 14.8408C48.8999 16.3115 48.4552 17.9793 48.4569 19.6765C48.4569 23.2533 50.3883 26.3949 53.2855 28.0383V34.1765H48.4569C29.7704 34.1765 14.6571 49.3049 14.6571 68.0099H9.82854C7.17285 68.0099 5 70.1849 5 72.8433V87.3433C5 90.0015 7.17285 92.1765 9.82854 92.1765H14.6571V97.0099C14.6571 99.5737 15.6745 102.032 17.4856 103.845C19.2967 105.658 21.7529 106.677 24.3142 106.677H91.9138C97.2735 106.677 101.571 102.375 101.571 97.0099V92.1765H106.399C109.055 92.1765 111.228 90.0015 111.228 87.3433V72.8433C111.228 70.1849 109.055 68.0099 106.399 68.0099ZM101.571 82.5099H91.9138V97.0099H24.3142V82.5099H14.6571V77.6765H24.3142V68.0099C24.3142 54.6699 35.1301 43.8433 48.4569 43.8433H67.7711C81.0979 43.8433 91.9138 54.6699 91.9138 68.0099V77.6765H101.571V82.5099ZM41.214 65.5933L52.6095 76.9999L46.9118 82.7033L41.214 76.9999L35.5165 82.7033L29.8187 76.9999L41.214 65.5933ZM75.0139 65.5933L86.4092 76.9999L80.7117 82.7033L75.0139 76.9999L69.3162 82.7033L63.6186 76.9999L75.0139 65.5933Z" fill="#4A00E0"/>
</svg>
