<svg xmlns="http://www.w3.org/2000/svg" width="346" height="116" viewBox="0 0 346 116" fill="none">
<path d="M143.228 72.5566C143.228 69.514 143.913 66.7847 145.284 64.3686C146.655 61.9227 148.517 60.0136 150.871 58.6415C153.255 57.2694 155.893 56.5834 158.783 56.5834C162.18 56.5834 165.145 57.4036 167.678 59.0442C170.211 60.6848 172.058 63.0114 173.221 66.0241H168.348C167.484 64.1449 166.233 62.6982 164.594 61.684C162.985 60.6699 161.048 60.1628 158.783 60.1628C156.608 60.1628 154.656 60.6699 152.928 61.684C151.199 62.6982 149.843 64.1449 148.86 66.0241C147.877 67.8735 147.385 70.051 147.385 72.5566C147.385 75.0323 147.877 77.2098 148.86 79.089C149.843 80.9384 151.199 82.3702 152.928 83.3843C154.656 84.3985 156.608 84.9056 158.783 84.9056C161.048 84.9056 162.985 84.4134 164.594 83.4291C166.233 82.4149 167.484 80.9682 168.348 79.089H173.221C172.058 82.0719 170.211 84.3836 167.678 86.0242C165.145 87.6349 162.18 88.4403 158.783 88.4403C155.893 88.4403 153.255 87.7691 150.871 86.4268C148.517 85.0547 146.655 83.1606 145.284 80.7445C143.913 78.3284 143.228 75.5991 143.228 72.5566ZM177.757 75.8228C177.757 73.3172 178.263 71.1248 179.276 69.2456C180.29 67.3366 181.675 65.86 183.433 64.816C185.221 63.772 187.203 63.25 189.378 63.25C191.524 63.25 193.386 63.7124 194.966 64.6371C196.545 65.5618 197.722 66.7251 198.497 68.127V63.6527H202.609V88.1718H198.497V83.608C197.692 85.0398 196.485 86.233 194.876 87.1875C193.297 88.1122 191.449 88.5745 189.334 88.5745C187.158 88.5745 185.192 88.0376 183.433 86.9638C181.675 85.8899 180.29 84.3836 179.276 82.4447C178.263 80.5059 177.757 78.2986 177.757 75.8228ZM198.497 75.8675C198.497 74.0182 198.124 72.4074 197.379 71.0353C196.634 69.6632 195.621 68.6192 194.34 67.9033C193.088 67.1576 191.703 66.7847 190.183 66.7847C188.663 66.7847 187.277 67.1427 186.026 67.8586C184.774 68.5744 183.776 69.6184 183.031 70.9906C182.286 72.3627 181.914 73.9734 181.914 75.8228C181.914 77.702 182.286 79.3426 183.031 80.7445C183.776 82.1166 184.774 83.1755 186.026 83.9212C187.277 84.6371 188.663 84.9951 190.183 84.9951C191.703 84.9951 193.088 84.6371 194.34 83.9212C195.621 83.1755 196.634 82.1166 197.379 80.7445C198.124 79.3426 198.497 77.7169 198.497 75.8675ZM213.55 55.0621V88.1718H209.483V55.0621H213.55ZM229.6 84.4134L237.199 63.6527H241.535L231.925 88.1718H227.187L217.576 63.6527H221.957L229.6 84.4134ZM247.639 59.6706C246.864 59.6706 246.208 59.4022 245.672 58.8652C245.136 58.3283 244.867 57.6721 244.867 56.8966C244.867 56.121 245.136 55.4648 245.672 54.9279C246.208 54.391 246.864 54.1225 247.639 54.1225C248.384 54.1225 249.01 54.391 249.516 54.9279C250.052 55.4648 250.321 56.121 250.321 56.8966C250.321 57.6721 250.052 58.3283 249.516 58.8652C249.01 59.4022 248.384 59.6706 247.639 59.6706ZM249.605 63.6527V88.1718H245.538V63.6527H249.605ZM268.472 63.2053C271.451 63.2053 273.865 64.1151 275.713 65.9346C277.56 67.7243 278.484 70.3194 278.484 73.7199V88.1718H274.461V74.3015C274.461 71.8556 273.85 69.9913 272.629 68.7087C271.407 67.3962 269.738 66.74 267.622 66.74C265.477 66.74 263.763 67.4111 262.482 68.7534C261.23 70.0957 260.605 72.0495 260.605 74.6147V88.1718H256.537V63.6527H260.605V67.1427C261.409 65.8899 262.497 64.9204 263.868 64.2344C265.268 63.5483 266.803 63.2053 268.472 63.2053ZM297.287 63.2053C299.135 63.2053 300.804 63.608 302.293 64.4134C303.783 65.1889 304.946 66.3671 305.78 67.948C306.644 69.529 307.076 71.4529 307.076 73.7199V88.1718H303.053V74.3015C303.053 71.8556 302.442 69.9913 301.221 68.7087C299.999 67.3962 298.33 66.74 296.214 66.74C294.069 66.74 292.356 67.4111 291.074 68.7534C289.823 70.0957 289.197 72.0495 289.197 74.6147V88.1718H285.129V55.0621H289.197V67.1427C290.001 65.8899 291.104 64.9204 292.505 64.2344C293.935 63.5483 295.529 63.2053 297.287 63.2053ZM324.403 88.5745C322.108 88.5745 320.022 88.0525 318.145 87.0085C316.297 85.9645 314.837 84.488 313.764 82.579C312.721 80.6401 312.2 78.403 312.2 75.8675C312.2 73.3619 312.736 71.1546 313.809 69.2456C314.912 67.3067 316.402 65.8302 318.279 64.816C320.156 63.772 322.257 63.25 324.582 63.25C326.906 63.25 329.007 63.772 330.884 64.816C332.761 65.8302 334.236 67.2918 335.309 69.2008C336.412 71.1099 336.963 73.3321 336.963 75.8675C336.963 78.403 336.397 80.6401 335.264 82.579C334.162 84.488 332.657 85.9645 330.75 87.0085C328.843 88.0525 326.727 88.5745 324.403 88.5745ZM324.403 84.9951C325.863 84.9951 327.234 84.652 328.515 83.966C329.796 83.2799 330.824 82.2508 331.599 80.8787C332.404 79.5066 332.806 77.8362 332.806 75.8675C332.806 73.8988 332.419 72.2284 331.644 70.8563C330.869 69.4842 329.856 68.47 328.604 67.8138C327.353 67.1278 325.997 66.7847 324.537 66.7847C323.047 66.7847 321.676 67.1278 320.425 67.8138C319.203 68.47 318.219 69.4842 317.474 70.8563C316.729 72.2284 316.357 73.8988 316.357 75.8675C316.357 77.866 316.715 79.5514 317.43 80.9235C318.175 82.2956 319.158 83.3247 320.38 84.0107C321.602 84.667 322.943 84.9951 324.403 84.9951Z" fill="#4A00E0"/>
<path d="M111.399 68.0099H106.571C106.571 49.3049 91.4576 34.1765 72.7711 34.1765H67.9425V28.0383C69.4109 27.1897 70.6304 25.9688 71.478 24.499C72.3256 23.0289 72.7716 21.3615 72.7711 19.6642C72.7706 17.9668 72.3238 16.2997 71.4755 14.8301C70.6271 13.3606 69.4071 12.1405 67.9384 11.2926C66.4694 10.4447 64.8035 9.99892 63.1078 10C61.4122 10.0011 59.7468 10.449 58.279 11.2988C56.8112 12.1486 55.593 13.3702 54.7463 14.8408C53.8999 16.3115 53.4552 17.9793 53.4569 19.6765C53.4569 23.2533 55.3883 26.3949 58.2855 28.0383V34.1765H53.4569C34.7704 34.1765 19.6571 49.3049 19.6571 68.0099H14.8285C12.1728 68.0099 10 70.1849 10 72.8433V87.3433C10 90.0015 12.1728 92.1765 14.8285 92.1765H19.6571V97.0099C19.6571 99.5737 20.6745 102.032 22.4856 103.845C24.2967 105.658 26.7529 106.677 29.3142 106.677H96.9138C102.273 106.677 106.571 102.375 106.571 97.0099V92.1765H111.399C114.055 92.1765 116.228 90.0015 116.228 87.3433V72.8433C116.228 70.1849 114.055 68.0099 111.399 68.0099ZM106.571 82.5099H96.9138V97.0099H29.3142V82.5099H19.6571V77.6765H29.3142V68.0099C29.3142 54.6699 40.1301 43.8433 53.4569 43.8433H72.7711C86.0979 43.8433 96.9138 54.6699 96.9138 68.0099V77.6765H106.571V82.5099ZM46.214 65.5933L57.6095 76.9999L51.9118 82.7033L46.214 76.9999L40.5165 82.7033L34.8187 76.9999L46.214 65.5933ZM80.0139 65.5933L91.4092 76.9999L85.7117 82.7033L80.0139 76.9999L74.3162 82.7033L68.6186 76.9999L80.0139 65.5933Z" fill="#4A00E0"/>
</svg>
